<svg xmlns="http://www.w3.org/2000/svg" width="56" height="66" viewBox="0 0 56 66">
  <defs>
    <style>
      .cls-1 {
        fill: #ffd981;
        fill-rule: evenodd;
      }
    </style>
  </defs>
  <path class="cls-1" d="M822,1156.81c0,6.11-4.087,10.19-10.219,10.19H798.546a13.271,13.271,0,0,0,2.406-1.8c1.186-1.27,4.7,1.01,6.8-2.18h4.28c3.729,0,5.971-2.23,5.973-5.95,0-18.28,0-27.88,0-45.88,0-3.94-2.021-6.08-5.841-6.21,0.015,0-.106-0.01-0.483-0.02a1.29,1.29,0,0,0-1.57,1.45,2.967,2.967,0,0,1-3.237,3.09c-4.047.01-3.861,0.01-7.907,0a2.967,2.967,0,0,1-3.237-3.09,1.29,1.29,0,0,0-1.57-1.45c-0.377.01-.5,0.02-0.483,0.02-3.82.13-5.841,2.27-5.842,6.21v13.29l-0.043-.15s-0.649-.57-3.943-1.44c0-1.75,0-9.9,0-11.83,0-5.94,4.129-10.06,10.087-10.06h17.967c5.957,0,10.086,4.12,10.087,10.06C822,1129.25,822,1138.76,822,1156.81Zm-10.212-51.84c0.129,0,.257,0,0.382.01C812.118,1104.99,810.521,1104.97,811.787,1104.97Zm-18.105.01c0.125-.01.252-0.01,0.381-0.01C795.329,1104.97,793.732,1104.99,793.682,1104.98ZM786,1127a20,20,0,1,1-20,20A20,20,0,0,1,786,1127Z" transform="translate(-766 -1101)"/>
</svg>
