<svg xmlns="http://www.w3.org/2000/svg" width="120.813" height="36.812" viewBox="0 0 120.813 36.812">
  <defs>
    <style>
      .cls-1 {
        fill-rule: evenodd;
      }
    </style>
  </defs>
  <path class="cls-1" d="M538.034,730.5c0.686,0,1.373,0,2.059,0a0.5,0.5,0,0,1,.61.479c0.351,1.668.694,3.338,1.048,5.006,0.3,1.395.605,2.787,0.9,4.181,0.284,1.333.556,2.667,0.837,4,0.3,1.426.61,2.851,0.912,4.277,0.12,0.567.231,1.136,0.351,1.7a0.222,0.222,0,0,1-.229.3,2.632,2.632,0,0,1-.294.015c-1.22,0-2.44.007-3.66,0-0.554,0-.577-0.033-0.683-0.551-0.13-.641-0.269-1.281-0.413-1.918a0.48,0.48,0,0,0-.6-0.48c-1.906,0-3.813.006-5.719-.006a0.629,0.629,0,0,0-.72.484c-0.207.655-.471,1.291-0.706,1.937a0.6,0.6,0,0,1-.753.537q-2.107,0-4.216,0c-0.634,0-.679-0.071-0.437-0.642q1.9-4.484,3.8-8.965,1.865-4.393,3.736-8.783a2.4,2.4,0,0,1,2.38-1.58C536.836,730.49,537.435,730.494,538.034,730.5Zm-1.127,5.645-0.077,0c-0.06.131-.128,0.259-0.178,0.394q-0.854,2.31-1.7,4.622c-0.222.6-.45,1.207-0.664,1.813-0.072.2-.1,0.435,0.224,0.438,1.208,0.008,2.416,0,3.624,0a0.245,0.245,0,0,0,.271-0.314c-0.038-.265-0.08-0.53-0.136-0.792-0.236-1.11-.481-2.219-0.717-3.329-0.153-.723-0.292-1.449-0.448-2.172C537.058,736.576,536.974,736.36,536.907,736.14Zm-43.325,7.768a2.431,2.431,0,0,0,.236-0.345q1.586-3.948,3.165-7.9c0.649-1.616,1.3-3.228,1.952-4.843a0.466,0.466,0,0,1,.471-0.325c1.558,0,3.116,0,4.674,0,0.337,0,.42.124,0.292,0.425-0.712,1.683-1.432,3.363-2.146,5.045-0.768,1.811-1.53,3.625-2.3,5.435q-1.11,2.611-2.232,5.219c-0.494,1.156-.994,2.31-1.474,3.472a0.523,0.523,0,0,1-.541.369q-2.387,0-4.772,0a0.42,0.42,0,0,1-.471-0.346c-0.237-.924-0.49-1.845-0.734-2.768q-0.559-2.114-1.114-4.231c-0.282-1.079-.56-2.159-0.843-3.238q-0.564-2.147-1.132-4.292-0.21-.793-0.436-1.582a1.946,1.946,0,0,0-1.024-1.195,16.537,16.537,0,0,0-3.44-1.3c-0.482-.134-0.97-0.245-1.448-0.39A0.459,0.459,0,0,1,480,730.88a0.938,0.938,0,0,1,.293-0.366,0.541,0.541,0,0,1,.287-0.024c2.778,0,5.557,0,8.335,0a2.372,2.372,0,0,1,2.421,1.943c0.346,1.713.66,3.432,0.993,5.147,0.294,1.516.6,3.029,0.892,4.545,0.09,0.462.167,0.927,0.254,1.39C493.493,743.617,493.527,743.713,493.582,743.908Zm23.425,6.91a17.32,17.32,0,0,1-5.254-.915,0.4,0.4,0,0,1-.328-0.5q0.4-1.822.792-3.646c0.063-.293.211-0.332,0.469-0.208a10.652,10.652,0,0,0,4.57,1.068,4.77,4.77,0,0,0,2.733-.6,1.483,1.483,0,0,0,.233-2.519,10.416,10.416,0,0,0-1.893-1.185,12.82,12.82,0,0,1-3.447-2.3,4.524,4.524,0,0,1-1.4-3.395,5.787,5.787,0,0,1,1.732-3.958,8.415,8.415,0,0,1,3.956-2.149,12.33,12.33,0,0,1,3.428-.394,14.94,14.94,0,0,1,4.258.754,0.411,0.411,0,0,1,.325.536c-0.212.975-.429,1.948-0.645,2.922l-0.111.5c-0.065.3-.168,0.346-0.463,0.256a19.345,19.345,0,0,0-2.064-.6,6.718,6.718,0,0,0-3.642.112,2.849,2.849,0,0,0-.944.606,1.114,1.114,0,0,0,0,1.67,9.737,9.737,0,0,0,1.642,1.147,25.034,25.034,0,0,1,3.294,1.962,4.94,4.94,0,0,1,1.836,5.515,6.422,6.422,0,0,1-4.369,4.547A13.283,13.283,0,0,1,517.007,750.818Zm-11.869-.357c-0.719,0-1.439.007-2.157,0-0.43,0-.466-0.06-0.378-0.474q0.628-2.94,1.257-5.882,0.576-2.673,1.16-5.345c0.4-1.823.785-3.647,1.182-5.47,0.179-.817.374-1.63,0.551-2.447a0.367,0.367,0,0,1,.394-0.343l4.477,0a0.3,0.3,0,0,1,.327.42c-0.174.818-.343,1.637-0.517,2.455q-0.357,1.666-.72,3.333c-0.227,1.036-.464,2.071-0.693,3.106-0.151.681-.3,1.362-0.442,2.044q-0.346,1.62-.692,3.239t-0.7,3.238c-0.134.618-.272,1.235-0.4,1.852a0.378,0.378,0,0,1-.454.275c-0.729,0-1.459,0-2.189,0v0ZM586.4,750.4a14.308,14.308,0,0,1-8.454-2.761,14.759,14.759,0,0,0-.334-23.028A14.394,14.394,0,1,1,586.4,750.4Zm-9.6-2.46a14.784,14.784,0,0,1,0-23.339A14.784,14.784,0,0,1,576.8,747.939Zm-1.146-.3a14.4,14.4,0,1,1,.334-23.028A14.759,14.759,0,0,0,575.654,747.638Zm-18.728,7.1,0.032,0.031a1.29,1.29,0,0,1,1.2-.543,1.369,1.369,0,0,1,1.133.683,0.363,0.363,0,0,0,.056-0.052,1.513,1.513,0,0,1,1.763-.564,1.29,1.29,0,0,1,.994,1.267c0.044,0.9.011,1.8,0.011,2.717H561.3v-0.2q0-.973,0-1.948a2.333,2.333,0,0,0-.01-0.3,0.783,0.783,0,0,0-.82-0.8,0.864,0.864,0,0,0-.91.807,3.9,3.9,0,0,0-.028.508c0,0.637,0,1.273,0,1.925H558.7v-0.205c0-.637,0-1.274,0-1.911a2.364,2.364,0,0,0-.017-0.377,0.777,0.777,0,0,0-.878-0.746,0.855,0.855,0,0,0-.843.859c-0.022.718-.012,1.437-0.015,2.156,0,0.075,0,.149,0,0.23h-0.816v-3.947h0.8v0.412Zm7.023-.33a1.645,1.645,0,0,1,2.009.381v-0.463h0.813v3.944h-0.8v-0.4a0.247,0.247,0,0,0-.048-0.01,1.718,1.718,0,0,1-2.708-.316A2.23,2.23,0,0,1,563.949,754.408Zm0.175,2.9a1.081,1.081,0,0,0,1.238.149,1.15,1.15,0,0,0,.641-1.071,1.341,1.341,0,0,0-.414-1.089,1.122,1.122,0,0,0-1.606.147A1.434,1.434,0,0,0,564.124,757.307Zm4.693,0.262a3.871,3.871,0,0,0,.893-0.012,0.461,0.461,0,0,0,.228-0.105,0.331,0.331,0,0,0-.054-0.606c-0.269-.1-0.561-0.123-0.84-0.194a3.886,3.886,0,0,1-.706-0.213,1.111,1.111,0,0,1-.134-1.9,1.892,1.892,0,0,1,.7-0.278,2.791,2.791,0,0,1,1.806.276c0.032,0.017.062,0.039,0.092,0.059s0.03,0.021.055,0.04l-0.347.679a2.341,2.341,0,0,0-1.249-.325,1.4,1.4,0,0,0-.434.106,0.359,0.359,0,0,0-.227.372,0.308,0.308,0,0,0,.268.291c0.305,0.067.615,0.11,0.92,0.176a2.731,2.731,0,0,1,.5.155,0.992,0.992,0,0,1,.654.829,1.135,1.135,0,0,1-.477,1.126,1.982,1.982,0,0,1-1.165.336,2.653,2.653,0,0,1-1.707-.514c0.131-.225.251-0.435,0.355-0.613A5.339,5.339,0,0,0,568.817,757.569Zm3.466-4.446h0.825v1.184h1.345v0.8h-1.341v0.5c0,0.435,0,.87,0,1.305a0.563,0.563,0,0,0,.766.633c0.169-.039.331-0.108,0.517-0.17,0.037,0.1.078,0.219,0.116,0.333s0.074,0.238.116,0.373a1.793,1.793,0,0,1-1.2.295A1.171,1.171,0,0,1,572.288,757c-0.012-.555,0-1.11,0-1.664V755.1H571.53v-0.781h0.753v-1.195Zm3.908,1.3a1.785,1.785,0,0,1,2.627,1.59c0.019,0.2,0,.4,0,0.617h-2.788a1.02,1.02,0,0,0,.964.976,1.8,1.8,0,0,0,1.253-.4l0.4,0.627a2.1,2.1,0,0,1-.994.5,2.235,2.235,0,0,1-1.364-.1,1.959,1.959,0,0,1-1.128-1.936A1.923,1.923,0,0,1,576.191,754.421Zm1.792,1.527a0.969,0.969,0,0,0-1.937,0h1.937Zm2.522-1.156a1.205,1.205,0,0,1,.724-0.538,1.469,1.469,0,0,1,.862.079c-0.083.267-.162,0.522-0.243,0.785-0.117-.024-0.227-0.05-0.337-0.068a0.808,0.808,0,0,0-.991.9c-0.011.7,0,1.4,0,2.1v0.218h-0.81v-3.945h0.8v0.467Zm5.218-.091-0.359.639a5.808,5.808,0,0,0-.763-0.282,1.251,1.251,0,1,0,.293,2.413c0.15-.06.29-0.148,0.453-0.233,0.127,0.223.252,0.443,0.375,0.662a2.12,2.12,0,0,1-2.816-.1,2.291,2.291,0,0,1-.042-2.944A2.111,2.111,0,0,1,585.723,754.7Zm3.542,0.084v-0.46h0.8v3.945h-0.8v-0.378a4.072,4.072,0,0,1-.729.416,1.867,1.867,0,0,1-2.341-1.613,2.2,2.2,0,0,1,.667-2.03A1.7,1.7,0,0,1,589.265,754.785Zm-1.118,2.787a1.156,1.156,0,0,0,1.154-1.244,1.155,1.155,0,1,0-2.3-.033A1.163,1.163,0,0,0,588.147,757.572Zm3.825-2.839a1.44,1.44,0,0,1,.727-0.478,1.518,1.518,0,0,1,.867.075l-0.244.788c-0.13-.027-0.246-0.056-0.363-0.074a0.769,0.769,0,0,0-.948.789c-0.028.705-.017,1.411-0.022,2.117,0,0.1,0,.2,0,0.324h-0.8v-3.945h0.786v0.4Zm4.951,0.052v-2.053h0.8v5.542h-0.8V757.89a4.016,4.016,0,0,1-.728.418,1.87,1.87,0,0,1-2.346-1.629,2.492,2.492,0,0,1,.208-1.414A1.745,1.745,0,0,1,596.923,754.785Zm-0.747,2.738a1.279,1.279,0,0,0,.768-1.487,1.122,1.122,0,0,0-.827-0.968A1.249,1.249,0,1,0,596.176,757.523Z" transform="translate(-480 -721.594)"/>
</svg>
