<svg xmlns="http://www.w3.org/2000/svg" width="123.75" height="23.938" viewBox="0 0 123.75 23.938">
  <defs>
    <style>
      .cls-1 {
        fill: #171717;
        fill-rule: evenodd;
      }
    </style>
  </defs>
  <path id="fasa" class="cls-1" d="M1396.57,752.366c0.23-1.139.47-2.275,0.7-3.406,0.06-.011.09-0.023,0.12-0.024,2.07-.024,4.13-0.056,6.2-0.07,4.2-.029,8.4-0.044,12.6-0.073,3.05-.022,6.09-0.056,9.14-0.089,0.49,0,.98-0.04,1.47-0.046a2.361,2.361,0,0,0,2.35-1.773,0.518,0.518,0,0,0-.04-0.322c-1.06-2.3-2.13-4.6-3.19-6.907q-1.41-3.051-2.8-6.106a2.2,2.2,0,0,1-.11-0.282h0.4c1.7-.018,3.4-0.027,5.1-0.065a0.437,0.437,0,0,1,.5.366q1.41,4.142,2.84,8.278c0.02,0.073.05,0.145,0.1,0.277,0.9-3.007,1.78-5.958,2.67-8.949h5.47c-0.15.419-.31,0.845-0.47,1.267q-2.55,6.62-5.12,13.236a9.588,9.588,0,0,1-1.43,2.637,4.3,4.3,0,0,1-2.51,1.525,12.3,12.3,0,0,1-2.38.282c-3.19.053-6.37,0.058-9.55,0.084q-3.8.03-7.57,0.068c-2.93.029-5.87,0.068-8.8,0.09C1400.38,752.377,1398.5,752.366,1396.57,752.366Zm-2.3-18.889c0.81,0,1.61.006,2.42,0,0.22,0,.23.124,0.23,0.29v1.656a1.974,1.974,0,0,0,.18-0.172,5.458,5.458,0,0,1,3.81-2.062,5.7,5.7,0,0,1,6.35,4.287,10.035,10.035,0,0,1,.35,4.324,6.357,6.357,0,0,1-1.18,3.205,5.511,5.511,0,0,1-3.37,2.16,6.317,6.317,0,0,1-4.41-.534c-0.42-.226-0.81-0.529-1.24-0.816-0.16.679-.33,1.361-0.49,2.043-0.33,1.409-.66,2.816-0.98,4.228a0.357,0.357,0,0,1-.43.336c-1.42-.015-2.83-0.013-4.25,0-0.56,0-1.12.039-1.67,0.055a1.408,1.408,0,0,1-.25-0.035c0.33-1.345.69-2.656,0.96-3.984a21.269,21.269,0,0,1,1.97-4.562c1.02-2.182,2.07-4.351,3.08-6.537a4.175,4.175,0,0,0,.36-2.01,1.843,1.843,0,0,0-1.13-1.6c-0.11-.057-0.22-0.1-0.33-0.156C1394.26,733.553,1394.26,733.515,1394.27,733.477Zm3.04,6.8c0.03,0.209.06,0.494,0.09,0.78a2.528,2.528,0,0,0,1.04,1.928,2.193,2.193,0,0,0,3.41-.96,5.142,5.142,0,0,0-.01-3.544,2.233,2.233,0,0,0-3.91-.566A4,4,0,0,0,1397.31,740.276Zm16.36-2.5-5.3-.48a4.46,4.46,0,0,1,3.33-3.738,15.2,15.2,0,0,1,4.88-.5c0.75,0.018,1.5.026,2.25,0.084a6.28,6.28,0,0,1,3.4,1.093,4.046,4.046,0,0,1,1.52,2.522,11,11,0,0,1,.21,1.987c0.03,1.136,0,2.273.01,3.41,0.02,1.581-.17,3.195.77,4.669-0.16.013-.26,0.026-0.36,0.026-1.54,0-3.08,0-4.62.007a0.411,0.411,0,0,1-.45-0.266c-0.16-.413-0.32-0.822-0.5-1.267-0.24.179-.53,0.394-0.81,0.606a6.41,6.41,0,0,1-3.33,1.192,16.058,16.058,0,0,1-2.32.064,4.56,4.56,0,0,1-3.84-1.985,3.576,3.576,0,0,1,1.72-5.245,18.559,18.559,0,0,1,3.15-.832,31.836,31.836,0,0,0,4.77-1.181,0.334,0.334,0,0,0,.29-0.449,1.237,1.237,0,0,0-1.33-1.289,11.143,11.143,0,0,0-1.75.074,1.787,1.787,0,0,0-1.49,1.094C1413.81,737.509,1413.73,737.647,1413.67,737.773Zm4.82,2.718c-0.62.177-1.2,0.328-1.76,0.509-0.82.262-1.65,0.511-2.44,0.833a1.223,1.223,0,0,0,.21,2.3,5.146,5.146,0,0,0,1.67.04,2.791,2.791,0,0,0,1.95-1.239A4.239,4.239,0,0,0,1418.49,740.491Zm-96.94,5.577c0.28-.014.49-0.03,0.7-0.032,3.45-.031,6.89-0.063,10.34-0.084a0.479,0.479,0,0,0,.5-0.294c0.78-1.5,1.58-2.989,2.37-4.482,0.06-.109.11-0.221,0.18-0.373q-9.675-1.023-19.3-2.036V738.71h0.31q9.945-.075,19.87-0.144a0.443,0.443,0,0,0,.49-0.308c0.06-.158.16-0.3,0.26-0.5l-12.23-2.032a0.259,0.259,0,0,0,.01-0.087c1.11,0,2.23,0,3.34,0,2.5-.013,5-0.039,7.5-0.042a0.62,0.62,0,0,0,.7-0.424c0.12-.3.31-0.56,0.44-0.851a0.467,0.467,0,0,1,.5-0.314c0.43,0.017.87-.037,1.3,0a0.591,0.591,0,0,0,.69-0.542l-19.04-2.009V731.4c0.15,0,.3,0,0.45,0,6.47-.058,12.95-0.126,19.42-0.158a1.382,1.382,0,0,0,1.26-.735l-15.59-1.648v-0.053c0.05,0,.09-0.009.13-0.01,6.93-.093,13.86-0.2,20.79-0.267,1.45-.014,2.9.135,4.46,0.214-0.27.376-.46,0.651-0.66,0.924-0.48.667-.97,1.326-1.44,2a0.5,0.5,0,0,1-.52.218c-0.46-.039-0.93-0.069-1.4-0.08a2.122,2.122,0,0,0-1.83.95c-0.26.355-.47,0.747-0.73,1.175h2.63c-0.08.161-.13,0.284-0.19,0.4-0.54,1.019-1.09,2.033-1.62,3.057a0.457,0.457,0,0,1-.47.295c-0.67-.009-1.35.024-2.02,0.018a0.459,0.459,0,0,0-.47.293q-2.4,4.529-4.79,9.054a0.44,0.44,0,0,1-.5.28c-1.77-.151-3.55-0.284-5.32-0.416-1.64-.123-3.27-0.236-4.91-0.359q-2.745-.206-5.49-0.422A0.721,0.721,0,0,1,1321.55,746.068Zm24.14-8.341a9.312,9.312,0,0,1,3.81-3.145,12.651,12.651,0,0,1,3.73-.907,24.968,24.968,0,0,1,4.64-.054,9.98,9.98,0,0,1,1.79.276,2.105,2.105,0,0,1,1.67,2.85,8.962,8.962,0,0,1-.67,1.82c-0.99,1.92-2.02,3.817-3.03,5.722a5.473,5.473,0,0,0-.84,2.906h-5.26c0.07-.493.14-1,0.21-1.44-0.83.38-1.68,0.85-2.58,1.173a10.729,10.729,0,0,1-5.58.523,2.166,2.166,0,0,1-1.95-1.534,2.547,2.547,0,0,1,.2-1.736,6.729,6.729,0,0,1,4.42-3.8c1.34-.387,2.72-0.607,4.08-0.911,1.61-.36,3.21-0.725,4.81-1.1a1.206,1.206,0,0,0,.62-1.143,0.576,0.576,0,0,0-.62-0.557,4.98,4.98,0,0,0-3.48.667c-0.3.214-.56,0.5-0.85,0.737a0.533,0.533,0,0,1-.32.136c-1.46-.128-2.93-0.268-4.39-0.408C1345.98,737.789,1345.85,737.757,1345.69,737.727Zm8.29,3.2c-0.78.19-1.53,0.356-2.27,0.56-0.91.249-1.82,0.488-2.7,0.808a2.16,2.16,0,0,0-1.36,1.365,0.667,0.667,0,0,0,.51.966,3.565,3.565,0,0,0,1.22.052A5.642,5.642,0,0,0,1353.98,740.927Zm27.73,6.588c-1.63-.086-3.33-0.162-5.03-0.276a5.631,5.631,0,0,1-1.33-.279,1.9,1.9,0,0,1-1.24-2.63,6.725,6.725,0,0,1,4.36-4.366,16.33,16.33,0,0,1,4.23-.844c1.97-.119,3.94-0.229,5.91-0.346a4.05,4.05,0,0,0,.78-0.085,1.046,1.046,0,0,0,.53-0.3,5.749,5.749,0,0,0,.76-1.174,0.829,0.829,0,0,0-.53-1.24,5,5,0,0,0-1.43-.275,19.166,19.166,0,0,0-4.9.568,2.193,2.193,0,0,0-1.61,1.593,0.981,0.981,0,0,1-.96.759,4.218,4.218,0,0,1-2.04-.237c-0.41-.168-0.45-0.269-0.31-0.679a5.605,5.605,0,0,1,4.38-3.886,20.847,20.847,0,0,1,6.07-.5c0.9,0.058,1.79.178,2.68,0.3a2.291,2.291,0,0,1,.76.288,1.964,1.964,0,0,1,1.03,2.252,10.311,10.311,0,0,1-1.19,3.181c-1.23,2.542-2.5,5.063-3.77,7.587a0.475,0.475,0,0,1-.35.238C1386.27,747.291,1384.02,747.4,1381.71,747.515Zm-1.31-1.091c1.15,0,2.25,0,3.34-.01a0.338,0.338,0,0,0,.23-0.234c0.16-.993.3-1.989,0.43-2.986a1.189,1.189,0,0,1,.45-0.827,2.353,2.353,0,0,0,.59-0.9,0.9,0.9,0,0,0-.88-1.249,2.231,2.231,0,0,0-1.97,1.025,1.112,1.112,0,0,0-.23,1.186,0.527,0.527,0,0,1-.06.556C1381.68,744.112,1381.05,745.241,1380.4,746.424Zm-16.07-3.459c0.01,0.278.01,0.5,0.04,0.729a0.9,0.9,0,0,0,.73.809,3.906,3.906,0,0,0,3.45-.7,1.413,1.413,0,0,0,.36-0.448,0.556,0.556,0,0,0-.34-0.931c-0.59-.172-1.2-0.281-1.79-0.415-1.13-.253-2.28-0.446-3.39-0.77a2.034,2.034,0,0,1-1.41-2.751,6.241,6.241,0,0,1,2.76-3.376,9.713,9.713,0,0,1,4.78-1.565c1.37-.083,2.75-0.1,4.13-0.057a5.875,5.875,0,0,1,1.85.4,2.155,2.155,0,0,1,1.42,2.172,1.5,1.5,0,0,1-.05.8,1.2,1.2,0,0,1-.72.153c-1.07.107-2.14,0.2-3.2,0.3l-1.46.138a2.355,2.355,0,0,0-.24-0.846,1.387,1.387,0,0,0-.79-0.414,3.164,3.164,0,0,0-2.25.326,2.418,2.418,0,0,0-.7.678,0.474,0.474,0,0,0,.29.8c0.58,0.156,1.17.242,1.76,0.351,1.15,0.212,2.32.367,3.45,0.642a2.125,2.125,0,0,1,1.69,1.533,2.71,2.71,0,0,1-.21,1.836,7.63,7.63,0,0,1-3.01,3.254,11.606,11.606,0,0,1-5.06,1.7,19.3,19.3,0,0,1-4.23.047,10.218,10.218,0,0,1-2.22-.478,2.307,2.307,0,0,1-1.5-2.715c0.12-.647.12-0.673,0.75-0.743,1.14-.124,2.27-0.214,3.41-0.318C1363.19,743.067,1363.76,743.017,1364.33,742.965Z" transform="translate(-1316.34 -728.531)"/>
</svg>
