<svg xmlns="http://www.w3.org/2000/svg" width="19.22" height="19.19" viewBox="0 0 19.22 19.19">
  <defs>
    <style>
      .cls-1 {
        fill: #888;
        fill-rule: evenodd;
      }
    </style>
  </defs>
  <path class="cls-1" d="M1385.96,3658.65a4.458,4.458,0,0,1,2.95-1.77c3.3-.42,5.27,1.13,5.45,4.27,0.17,2.78.1,5.57,0.14,8.36a0.4,0.4,0,0,1-.5.48c-1.03-.01-2.06-0.02-3.1.01a0.424,0.424,0,0,1-.5-0.53c0.02-1.94.01-3.88,0-5.82a12.1,12.1,0,0,0-.1-1.47,1.728,1.728,0,0,0-1.73-1.73,1.974,1.974,0,0,0-2.28,1.61,10.128,10.128,0,0,0-.14,1.74q-0.03,2.745,0,5.49c0.01,0.54-.15.73-0.7,0.7-0.96-.04-1.92-0.02-2.87,0a0.427,0.427,0,0,1-.53-0.51q0.015-5.91,0-11.82a0.445,0.445,0,0,1,.55-0.54q1.38,0.045,2.76,0c0.46-.02.66,0.12,0.61,0.6A6.773,6.773,0,0,0,1385.96,3658.65Zm-10.32,4.89c0-1.94.02-3.88-.01-5.82a0.487,0.487,0,0,1,.61-0.6c0.99,0.03,1.99.02,2.98,0a0.423,0.423,0,0,1,.51.49c-0.01,3.95,0,7.91,0,11.86a0.423,0.423,0,0,1-.48.52c-1.05-.01-2.1-0.02-3.15,0-0.39.01-.46-0.18-0.46-0.52C1375.65,3667.49,1375.64,3665.52,1375.64,3663.54Zm2.06-12.74a2.375,2.375,0,0,1-.04,4.75A2.375,2.375,0,0,1,1377.7,3650.8Z" transform="translate(-1375.31 -3650.81)"/>
</svg>
