<svg xmlns="http://www.w3.org/2000/svg" width="19.19" height="19.19" viewBox="0 0 19.19 19.19">
  <defs>
    <style>
      .cls-1 {
        fill: #ffd200;
        fill-rule: evenodd;
      }
    </style>
  </defs>
  <path class="cls-1" d="M1297.61,3670c-1.49-.05-2.99-0.05-4.48-0.15a5.08,5.08,0,0,1-4.98-4.62,18.729,18.729,0,0,1-.14-2.37q-0.015-3.135.04-6.28a6.342,6.342,0,0,1,.7-3.01,4.906,4.906,0,0,1,3.35-2.52,13.83,13.83,0,0,1,3.08-.25c2.06-.01,4.12.01,6.18,0.04a6.552,6.552,0,0,1,3.07.7,4.821,4.821,0,0,1,2.56,3.59,19.276,19.276,0,0,1,.2,2.84c0.02,2.04,0,4.07-.03,6.11a6.632,6.632,0,0,1-.7,3.09,4.92,4.92,0,0,1-3.35,2.52,14.327,14.327,0,0,1-3.06.26c-0.81.02-1.63,0-2.44,0V3670Zm7.88-9.61c-0.03-1.4-.06-2.79-0.09-4.19a2.868,2.868,0,0,0-.05-0.41,3.253,3.253,0,0,0-2.69-3.05,9.939,9.939,0,0,0-2.04-.2c-2.01-.02-4.03-0.01-6.04,0a14.157,14.157,0,0,0-1.59.11,3.254,3.254,0,0,0-3.05,2.69,10.757,10.757,0,0,0-.19,2.04c-0.02,1.97-.02,3.95,0,5.92a13.251,13.251,0,0,0,.17,1.99,3.163,3.163,0,0,0,2.18,2.61,7.5,7.5,0,0,0,2.44.3q3.585,0.015,7.17-.05a3.815,3.815,0,0,0,2.4-.8,3.643,3.643,0,0,0,1.29-2.88C1305.46,3663.11,1305.46,3661.75,1305.49,3660.39Zm-2.95-.01a4.94,4.94,0,1,1-4.92-4.94A4.964,4.964,0,0,1,1302.54,3660.38Zm-1.75,0a3.19,3.19,0,1,0-3.21,3.18A3.163,3.163,0,0,0,1300.79,3660.38Zm3.08-5.12a1.148,1.148,0,0,1-1.14,1.15,1.188,1.188,0,0,1-1.16-1.16,1.163,1.163,0,0,1,1.16-1.14A1.129,1.129,0,0,1,1303.87,3655.26Z" transform="translate(-1288 -3650.81)"/>
</svg>
