<svg xmlns="http://www.w3.org/2000/svg" width="123.031" height="22" viewBox="0 0 123.031 22">
  <defs>
    <style>
      .cls-1 {
        fill: #171717;
        fill-rule: evenodd;
      }
    </style>
  </defs>
  <path id="neteller" class="cls-1" d="M829.421,745.843c0.693-3.828,1.372-7.577,2.049-11.327,0.286-1.586.581-3.17,0.843-4.761a0.735,0.735,0,0,1,.876-0.746c3.259,0.08,6.522.073,9.78,0.189a8.758,8.758,0,0,1,4.823,1.581c1.965,1.393,2.669,4,1.949,6.744-0.741,2.818-2.686,4.174-5.483,4.719,1.049,2.891,2.083,5.737,3.172,8.736-1.1,0-2.064,0-3.025,0-1.105,0-2.212-.046-3.315,0a0.837,0.837,0,0,1-.987-0.749c-0.845-3.022-1.728-6.033-2.6-9.046a5.558,5.558,0,0,0-.221-0.523c-0.557,3.149-1.089,6.129-1.609,9.112-0.21,1.2-.2,1.2-1.365,1.2l-63.156,0h-1.406c1.017-5.653,2.016-11.21,3.037-16.885-1.178,0-2.3-.021-3.418.024a0.741,0.741,0,0,0-.439.519q-1.323,7.212-2.6,14.434c-0.336,1.9-.307,1.911-2.213,1.911-7.4,0-14.789-.012-22.184.017a1.123,1.123,0,0,1-1.282-.925c-1.3-3.977-2.648-7.935-3.981-11.9-0.058-.172-0.121-0.343-0.244-0.69-0.5,2.873-.971,5.558-1.438,8.245-0.275,1.587-.536,3.177-0.835,4.759a0.676,0.676,0,0,1-.425.463c-2.2.03-4.4,0.021-6.719,0.021,0.2-1.112.377-2.105,0.555-3.1q1.629-9.081,3.248-18.165a0.672,0.672,0,0,1,.763-0.693q3.078,0.027,6.157-.006a0.725,0.725,0,0,1,.8.583q1.748,4.971,3.524,9.931c0.287,0.807.576,1.614,0.947,2.651,0.211-1.127.393-2.053,0.556-2.984,0.554-3.146,1.116-6.291,1.639-9.444a0.784,0.784,0,0,1,.978-0.731c4.289,0.013,8.578,0,12.868,0h28.283c-0.313,1.743-.605,3.369-0.906,5.043h-6.681c-0.215,1.239-.425,2.44-0.655,3.761h6.4c-0.244,1.433-.447,2.749-0.72,4.05a0.946,0.946,0,0,1-.712.282c-1.684.025-3.369,0.045-5.052,0a0.725,0.725,0,0,0-.873.744c-0.135.955-.3,1.906-0.464,2.925,0.251,0.026.451,0.064,0.65,0.064,3.026,0,6.053-.017,9.078.019a0.838,0.838,0,0,0,1-.879c0.886-5.08,1.822-10.151,2.732-15.226a0.747,0.747,0,0,1,.845-0.787c2.1,0.037,4.2.014,6.442,0.014-0.971,5.363-1.924,10.627-2.894,15.988,1.5,0,2.914.016,4.326-.024a0.759,0.759,0,0,0,.433-0.532c0.5-2.666.965-5.34,1.443-8.01,0.412-2.3.82-4.6,1.261-6.9a0.738,0.738,0,0,1,.483-0.5c2.2-.033,4.406-0.022,6.74-0.022-0.968,5.348-1.916,10.588-2.878,15.908h4.791q1.427-7.886,2.869-15.859h13.534c-0.215,1.244-.412,2.448-0.634,3.649-0.254,1.367-.265,1.367-1.6,1.367-1.526,0-3.053.016-4.579-.016a0.678,0.678,0,0,0-.833.686c-0.122.953-.3,1.9-0.48,2.991h6.355c-0.259,1.538-.494,2.929-0.741,4.4h-6.446c-0.216,1.259-.42,2.44-0.636,3.692h10.5Zm-72-8.08c-0.273,1.565-.515,2.953-0.771,4.419h-6.673c-0.225,1.258-.433,2.431-0.642,3.6a1.54,1.54,0,0,0,.331.105c3.206,0,6.413.016,9.619-.029a1,1,0,0,0,.666-0.669c0.562-2.924,1.076-5.859,1.594-8.792,0.133-.748.237-1.5,0.353-2.248H751.417c-0.19,1.2-.372,2.348-0.573,3.616h6.573Zm80.146,1.439a7.237,7.237,0,0,0,3.825-.366,2.866,2.866,0,0,0,1.6-3.244c-0.275-1.224-1.12-1.831-2.724-1.961-1.632-.131-1.65-0.134-1.967,1.462C838.033,736.428,837.816,737.773,837.563,739.2Z" transform="translate(-727 -729)"/>
</svg>
