<svg xmlns="http://www.w3.org/2000/svg" width="123" height="31" viewBox="0 0 123 31">
  <defs>
    <style>
      .cls-1 {
        fill: #171717;
        fill-rule: evenodd;
      }
    </style>
  </defs>
  <path id="PM" class="cls-1" d="M1006.87,739.442c-0.47,1.065-.94,2.125-1.39,3.2-0.97,2.348-1.92,4.7-2.88,7.053a0.7,0.7,0,0,1-.71.583,0.727,0.727,0,0,1-.71-0.6q-2.029-4.739-4.064-9.478a1.234,1.234,0,0,0-.418-0.537,4.081,4.081,0,0,0-.059.515q0.018,3.639.048,7.277c0,0.278.057,0.555,0.069,0.833a0.853,0.853,0,0,0,1,.886,0.631,0.631,0,0,1,.313.013,0.765,0.765,0,0,1,.363.391,0.53,0.53,0,0,1-.337.4q-2.166.043-4.335,0a0.4,0.4,0,0,1,.008-0.785,1.1,1.1,0,0,1,.439-0.018,0.762,0.762,0,0,0,.835-0.775c0.052-.684.139-1.369,0.138-2.054q0-4.765-.052-9.53a0.85,0.85,0,0,0-1.036-.991,0.522,0.522,0,0,1-.25-0.009,1.025,1.025,0,0,1-.388-0.431,0.538,0.538,0,0,1,.359-0.367c1.125-.03,2.253-0.046,3.377.009a0.951,0.951,0,0,1,.578.55c1.058,2.428,2.083,4.871,3.127,7.306,0.44,1.011.89,2.013,1.41,3.178,0.25-.5.44-0.84,0.59-1.2,1.3-3.111,2.61-6.224,3.9-9.34a0.722,0.722,0,0,1,.76-0.533c1.02,0.031,2.04.007,3.06,0.013,0.29,0,.63-0.051.62,0.421,0,0.427-.3.389-0.58,0.4-1,.045-1.06.1-1.16,1.108-0.03.3-.05,0.6-0.05,0.9,0.03,3.434.04,6.869,0.09,10.3a0.857,0.857,0,0,0,1.04,1.043c0.31,0.012.69-.075,0.66,0.445-0.02.476-.39,0.373-0.66,0.375-1.51.009-3.02,0.006-4.53,0-0.26,0-.57.074-0.59-0.376-0.02-.47.27-0.441,0.58-0.45,0.77-.024.98-0.21,0.99-0.938,0.03-2.77.03-5.54,0.04-8.309a2.488,2.488,0,0,0-.07-0.466ZM1046.8,725a6.037,6.037,0,1,1-6.2,6.015A6.121,6.121,0,0,1,1046.8,725Zm1.87,6.644-0.2.017c-0.36-.8-0.72-1.6-1.06-2.41-0.31-.715-0.53-0.812-1.33-0.518a4.751,4.751,0,0,1,0,4.238h1.4a2.6,2.6,0,0,1-.44-2.8c0.38,0.869.73,1.657,1.08,2.439a3.312,3.312,0,0,0,.29.39,2.2,2.2,0,0,0,.33-0.413c0.36-.816.7-1.64,1.04-2.461l0.23,0.066c-0.21.9,0.4,1.909-.49,2.785h1.68c-0.79-.577-0.8-3.4-0.15-4.278-0.94-.226-1.02-0.186-1.37.632C1049.34,730.1,1049.01,730.873,1048.67,731.645Zm-4.86-.7a7.37,7.37,0,0,0,.92.04,1.251,1.251,0,0,0,1.12-1.308,0.88,0.88,0,0,0-.82-1.051,18.511,18.511,0,0,0-1.91-.014v3.171a1.054,1.054,0,0,1-.45,1.214h1.69C1043.45,732.387,1043.88,731.658,1043.81,730.945ZM932.567,743.229h1.865c0,1.156,0,2.223,0,3.29,0,0.45.024,0.9,0.056,1.35,0.064,0.877.229,1.007,1.1,1.06a0.972,0.972,0,0,1,.718.3c0.222,0.476-.012.767-0.551,0.77-1.679.009-3.357,0-5.035,0.008a0.548,0.548,0,1,1,.012-1.093c1.14-.028,1.247-0.118,1.286-1.294,0.043-1.308.022-2.619,0.047-3.927a6.358,6.358,0,0,1,.148-0.892l-2.209-.4L930,742.2c1.506-.087,3.012-0.183,4.518-0.255a16.355,16.355,0,0,1,1.657.012c1.925,0.107,3.105-1.422,2.879-3.436-0.25-2.228-2.444-2.872-4.279-2.15a0.83,0.83,0,0,0-.288.63c-0.054,1.329-.071,2.659-0.1,3.989,0,0.229,0,.458,0,0.748H932.1c-0.011-.209-0.031-0.436-0.033-0.664-0.009-1.245.017-2.491-.03-3.734a1.045,1.045,0,0,0-1.283-1.258c-0.365-.009-0.6-0.061-0.6-0.524-0.006-.485.218-0.571,0.624-0.569,2.4,0.009,4.8-.013,7.2.011a3.559,3.559,0,0,1,3.489,2.119,4.477,4.477,0,0,1-2.269,5.365,7.015,7.015,0,0,1-2.325.53c-1.2.088-2.419,0.025-3.63,0.026h-0.668C932.569,743.105,932.568,743.167,932.567,743.229Zm93.293-2.328c0.41-.354.69-0.649,1.01-0.871a3.926,3.926,0,0,1,4.38.567,3.514,3.514,0,0,1,.76,2.455c0.02,1.673,0,3.347.01,5.021,0.01,0.918.1,0.988,1,1.121a1.4,1.4,0,0,1,.48.424,1.259,1.259,0,0,1-.48.363c-0.97.035-1.95,0.011-2.93,0.021-0.47,0-.4-0.295-0.4-0.611,0.03-2.057.08-4.114,0.05-6.171a1.961,1.961,0,0,0-1.87-1.98,2.2,2.2,0,0,0-2,1.974c-0.04,1.735-.02,3.472-0.02,5.209a0.655,0.655,0,0,0,.74.75,0.977,0.977,0,0,1,.44.021,0.664,0.664,0,0,1,.35.4,0.525,0.525,0,0,1-.35.387q-2.325.041-4.65,0a0.526,0.526,0,0,1-.3-0.415,0.511,0.511,0,0,1,.36-0.371c1.12-.171,1.15-0.18,1.16-1.353,0.01-1.889.01-3.777,0.01-5.666-0.01-.875-0.07-0.915-0.91-0.941-0.26-.009-0.62.136-0.66-0.364-0.03-.463.29-0.433,0.57-0.511,0.77-.218,1.54-0.451,2.31-0.677,0.62-.182.84-0.012,0.87,0.642C1025.8,740.464,1025.82,740.606,1025.86,740.9Zm22.3,5.9c0.22-.516.46-1.023,0.65-1.549,0.43-1.186.82-2.385,1.25-3.572,0.16-.466.07-0.74-0.44-0.824a0.984,0.984,0,0,1-.48-0.141,0.8,0.8,0,0,1-.24-0.5,0.419,0.419,0,0,1,.3-0.293q1.755-.035,3.51,0a0.47,0.47,0,0,1,.29.324,0.506,0.506,0,0,1-.16.422c-0.94.107-1.12,0.918-1.39,1.584q-2.355,5.857-4.64,11.738a3.12,3.12,0,0,1-1.72,1.878,3.585,3.585,0,0,1-1.87.024,0.692,0.692,0,0,1-.45-0.97,7.28,7.28,0,0,0,.22-0.8c0.14-.6.65-0.8,1.04-0.322,0.55,0.674,1.04.557,1.43-.187a20.688,20.688,0,0,0,1.31-3.122,2.294,2.294,0,0,0-.29-1.216c-0.89-2.427-1.8-4.848-2.71-7.27-0.23-.62-0.4-1.291-1.26-1.331a0.45,0.45,0,0,1-.2-0.383,0.522,0.522,0,0,1,.33-0.358,9.978,9.978,0,0,1,1.21-.029c0.94,0,1.87-.008,2.81,0,0.28,0,.67-0.122.67,0.422-0.01.5-.36,0.4-0.64,0.392-0.53-.014-0.8.222-0.62,0.74,0.59,1.776,1.23,3.54,1.85,5.308Zm-31.04-7.167a4.231,4.231,0,0,1,4.51,3.922c0.27,2.3-.11,4.39-2.11,5.824-2.09,1.5-5.7,1.319-6.97-1.545-0.85-1.889-.81-5.182.81-6.771A4.918,4.918,0,0,1,1017.12,739.631Zm2.25,5.827c0.03-1.837-.55-4.6-2.66-4.7a1.948,1.948,0,0,0-1.93,1.42,6.383,6.383,0,0,0,.83,6.159,1.777,1.777,0,0,0,2.36.585,3.673,3.673,0,0,0,1.37-2.951C1019.35,745.811,1019.36,745.639,1019.37,745.458Zm-75.726-.356a3.494,3.494,0,0,0,2.271,3.7,2.543,2.543,0,0,0,2.012-.289c0.267-.122.49-0.354,0.762-0.454a3.076,3.076,0,0,1,.775-0.081,3.471,3.471,0,0,1,.007.7,1.7,1.7,0,0,1-1.384,1.162,5.708,5.708,0,0,1-4.105.166,4.155,4.155,0,0,1-2.69-3.6,6.912,6.912,0,0,1,.5-4.274,4.556,4.556,0,0,1,3.838-2.481A3.547,3.547,0,0,1,949,740.9a4.884,4.884,0,0,1,.831,3.657,0.983,0.983,0,0,1-.738.4c-1.565.08-3.132,0.108-4.7,0.151C944.14,745.108,943.89,745.1,943.644,745.1Zm-0.02-1.084h2.3c1.807,0,1.933-.17,1.358-1.9a1.889,1.889,0,0,0-1.549-1.358,1.581,1.581,0,0,0-1.521.854A4.088,4.088,0,0,0,943.624,744.018Zm23.229,1.084a3.5,3.5,0,0,0,2.288,3.7,2.822,2.822,0,0,0,2.348-.471,3.4,3.4,0,0,1,.53-0.346,0.854,0.854,0,0,1,.65.024,0.638,0.638,0,0,1,.033.607,2.609,2.609,0,0,1-.831.958,5.831,5.831,0,0,1-4.742.413,3.721,3.721,0,0,1-2.36-2.534,6.878,6.878,0,0,1,.4-5.605c1.381-2.4,5.349-3.115,7.046-.941a4.932,4.932,0,0,1,.824,3.661,1,1,0,0,1-.745.387c-1.565.08-3.133,0.108-4.7,0.151C967.349,745.108,967.1,745.1,966.853,745.1Zm-0.025-1.132c0.255,0.019.441,0.046,0.627,0.047,0.974,0,1.949.012,2.922-.024a0.542,0.542,0,0,0,.357-0.389,5.766,5.766,0,0,0-.5-1.956,1.531,1.531,0,0,0-2.751-.119A4.044,4.044,0,0,0,966.828,743.97Zm69.152,1.132c0.05,1.975.81,3.151,2.27,3.683a2.814,2.814,0,0,0,2.4-.475,3.276,3.276,0,0,1,.53-0.34,0.966,0.966,0,0,1,.66.048,0.855,0.855,0,0,1,.03.57,1.4,1.4,0,0,1-.87,1.024,6.308,6.308,0,0,1-3.9.594,3.939,3.939,0,0,1-3.31-3.217,6.821,6.821,0,0,1,.51-5.113,4.479,4.479,0,0,1,3.72-2.234,3.518,3.518,0,0,1,3.54,1.544,5.062,5.062,0,0,1,.63,3.34,0.955,0.955,0,0,1-.72.422c-1.31.085-2.62,0.114-3.93,0.152C1037.03,745.115,1036.53,745.1,1035.98,745.1Zm0-1.084h2.31c1.79,0,1.93-.189,1.35-1.913a1.9,1.9,0,0,0-1.56-1.349,1.6,1.6,0,0,0-1.52.864A4.078,4.078,0,0,0,1035.98,744.018Zm-76.651-2.267a6.07,6.07,0,0,1-.833-0.01,0.641,0.641,0,0,1-.427-0.226,0.671,0.671,0,0,1,.211-0.525c1.172-.25,1.134-1.114,1.1-2.028a3.88,3.88,0,0,1,1.015-2.7c0.427-.5.887-0.982,1.348-1.456a2.535,2.535,0,0,1,2.325-.539,0.522,0.522,0,0,1,.346.369c0.006,0.546-.053,1.092-0.089,1.638-0.281-.03-0.565-0.05-0.844-0.1a1.11,1.11,0,0,1-.281-0.146,0.833,0.833,0,0,0-1.346.514,13.072,13.072,0,0,0-.288,2.216c-0.041.51-.007,1.026-0.007,1.651,0.665,0,1.294.01,1.923,0,0.388-.009.627,0.112,0.565,0.551-0.051.362,0.038,0.818-.57,0.8s-1.223,0-1.921,0c0,0.448,0,.826,0,1.205,0.011,1.675.015,3.35,0.039,5.025,0.016,1.073.134,1.178,1.182,1.194a0.482,0.482,0,0,1,.249.008,1.007,1.007,0,0,1,.369.44,0.529,0.529,0,0,1-.36.359q-2.454.036-4.91,0a0.529,0.529,0,0,1-.339-0.378,0.624,0.624,0,0,1,.388-0.41c1.067-.142,1.134-0.18,1.15-1.25,0.027-1.868.034-3.737,0.046-5.605C959.369,742.17,959.346,742,959.329,741.751Zm24.278,0a7.563,7.563,0,0,1-1-.012,0.591,0.591,0,0,1-.417-0.256,0.663,0.663,0,0,1,.241-0.514c1.335-.2,1.236-1.165,1.152-2.131-0.008-.085-0.007-0.172-0.009-0.257-0.032-1.553.042-1.665,1.462-2.23,0.568-.227.879,0.019,0.872,0.653-0.013,1.093,0,2.185,0,3.4h2.41c0.157,1.286.1,1.347-1.02,1.35-0.425,0-.849.009-1.273,0.018a0.636,0.636,0,0,0-.159.061,4.7,4.7,0,0,0-.044.47c0,1.609.008,3.218,0.024,4.827a2.465,2.465,0,0,0,.1.758,0.772,0.772,0,0,0,1.3.46,0.753,0.753,0,0,1,.325-0.178,0.515,0.515,0,0,1,.605.72,2.412,2.412,0,0,1-2.857,1.365,1.885,1.885,0,0,1-1.7-1.993c-0.048-1.887-.011-3.775-0.01-5.662v-0.849Zm-2.173,1.157c-0.876.307-1.036,0.187-1.176-.7a1.232,1.232,0,0,0-.467-0.76,2.312,2.312,0,0,0-3.692,1.594,5.986,5.986,0,0,0,.518,4.117,2.636,2.636,0,0,0,3.857,1.323c0.385-.184.912-0.437,1.115,0.049a1.3,1.3,0,0,1-.535,1.075c-1.5.936-4.506,1.022-5.792-.356a5.35,5.35,0,0,1-1.227-2.042,6.3,6.3,0,0,1,.293-4.818,5.332,5.332,0,0,1,4.1-2.712A8.578,8.578,0,0,1,981,739.9a0.714,0.714,0,0,1,.66,1.034A13.536,13.536,0,0,0,981.434,742.906Zm-27.406-1.8c0.335-.368.536-0.583,0.73-0.8a2.413,2.413,0,0,1,2.409-.611,0.831,0.831,0,0,1,.426.648,12.051,12.051,0,0,1-.131,1.856,0.737,0.737,0,0,1-.272.53,1.076,1.076,0,0,1-.812-0.151c-0.314-.315-0.442-0.925-1.038-0.72a1.612,1.612,0,0,0-1.138,1.5c-0.067,1.668-.069,3.338-0.08,5.008a0.789,0.789,0,0,0,.868.812,1.918,1.918,0,0,1,.567.028,0.6,0.6,0,0,1,.353.395,0.536,0.536,0,0,1-.362.382c-0.527.047-1.06,0.024-1.591,0.025-1.062,0-2.125-.017-3.186.007-0.54.012-.765-0.165-0.581-0.717a0.361,0.361,0,0,1,.107-0.066c1.605-.306,1.479-0.063,1.541-1.737,0.064-1.734.046-3.474-.022-5.208-0.039-1.012-.114-1.007-1.113-1.046-0.166-.006-0.331-0.038-0.528-0.061v-0.618c1.034-.3,2.04-0.62,3.059-0.89,0.593-.157.735-0.006,0.75,0.639C953.989,740.509,954.006,740.715,954.028,741.107Zm89.832-10.445c-0.21-1.222-.09-1.688.45-1.733a0.885,0.885,0,0,1,.92.9C1045.22,730.465,1044.82,730.718,1043.86,730.662Z" transform="translate(-930 -725)"/>
</svg>
