<svg xmlns="http://www.w3.org/2000/svg" width="56.06" height="66" viewBox="0 0 56.06 66">
  <defs>
    <style>
      .cls-1 {
        fill: #ffd981;
        fill-rule: evenodd;
      }
    </style>
  </defs>
  <path id="Rounded_Rectangle_616" data-name="Rounded Rectangle 616" class="cls-1" d="M1303.68,1119.79c-1.82-1.61-3.59-3.59-5.55-5.33,0.58-.57,1.22-1.24,1.92-1.86a2.092,2.092,0,0,1,3,.02c0.85,0.79,1.68,1.61,2.48,2.46a1.936,1.936,0,0,1,.12,2.8A20.605,20.605,0,0,1,1303.68,1119.79Zm-15.76-10.32c-1.23.02-2.47,0-3.75,0v2.07c9.86,1.47,17.34,6.46,21.9,15.39a26.265,26.265,0,0,1,1.98,19.31,27.956,27.956,0,1,1-29.67-34.7v-2.07h-4.07a3.01,3.01,0,0,1-3.34-3.35c0-.7,0-1.39.01-2.09a2.773,2.773,0,0,1,2.91-3.01q7.035-.045,14.09,0a2.445,2.445,0,0,1,2.71,2.45,19.4,19.4,0,0,1-.12,3.73A2.415,2.415,0,0,1,1287.92,1109.47ZM1262,1139a19,19,0,1,0,19-19A19,19,0,0,0,1262,1139Zm21.38,1.66a2.517,2.517,0,0,1-3.54,0,3.924,3.924,0,0,1-.84-2.16v-11a2.5,2.5,0,0,1,5,0v5.46l3.62-3.62a2.5,2.5,0,0,1,3.54,3.54Zm-26.85-22.74a2.012,2.012,0,0,1,.09-2.75c0.85-.86,1.71-1.71,2.57-2.56a1.987,1.987,0,0,1,2.91,0c0.64,0.6,1.28,1.21,1.86,1.76-2.01,1.78-3.62,3.73-5.58,5.47C1257.93,1119.37,1257.07,1118.52,1256.53,1117.92Z" transform="translate(-1253 -1101.03)"/>
</svg>
