<svg xmlns="http://www.w3.org/2000/svg" width="106" height="21" viewBox="0 0 106 21">
  <defs>
    <style>
      .cls-1 {
        fill: #171717;
        fill-rule: evenodd;
      }
    </style>
  </defs>
  <path class="cls-1" d="M1200.44,750.655c0.72-1.458,1.33-2.7,1.95-3.947q3.96-7.884,7.89-15.772a0.973,0.973,0,0,1,1.04-.565c1.79,0.012,3.58.028,5.37-.008a0.741,0.741,0,0,1,.94.773c0.3,3.923.63,7.843,0.94,11.765,0.19,2.293.35,4.589,0.58,6.88,0.07,0.735-.23.942-1.01,0.912-1.15-.043-2.31-0.027-3.46,0a0.65,0.65,0,0,1-.83-0.7c-0.01-.8-0.07-1.6-0.07-2.406a0.6,0.6,0,0,0-.74-0.674c-1.54.02-3.09-.019-4.63,0.034a1.192,1.192,0,0,0-.84.532c-0.44.819-.76,1.69-1.17,2.523a1.078,1.078,0,0,1-.6.621C1204.09,750.677,1202.38,750.655,1200.44,750.655Zm13.12-8.241c-0.1-2.507-.2-4.936-0.29-7.366-0.05-.006-0.1-0.013-0.14-0.02-1.08,2.431-2.17,4.863-3.29,7.386h3.72Zm-24.5,8.268c-0.61,0-1.21-.023-1.82,0-0.68.033-.9-0.16-0.77-0.8,0.66-2.992,1.26-5.992,1.88-8.989,0.67-3.233,1.36-6.463,1.99-9.7a0.9,0.9,0,0,1,1.11-.835c1.54,0.039,3.09,0,4.64.015,4.63,0.05,7.28,2.635,6.92,6.717-0.4,4.39-3.36,6.776-8.69,6.881a1.167,1.167,0,0,0-1.42,1.117c-0.27,1.613-.65,3.209-0.94,4.819a0.849,0.849,0,0,1-1.08.779C1190.27,750.646,1189.67,750.682,1189.06,750.682Zm5.14-11.355c2.3,0.267,3.95-1.494,3.27-3.306a1.659,1.659,0,0,0-1.86-1.1,0.831,0.831,0,0,0-.6.351C1194.71,736.6,1194.47,737.942,1194.2,739.327Zm-9.82,5.83c0,1.517.01,2.892-.02,4.267a0.727,0.727,0,0,1-.43.453,13.017,13.017,0,0,1-7.96.8,5.8,5.8,0,0,1-4.61-4.436,14.412,14.412,0,0,1,2.43-12.466c2.65-3.608,7.74-4.752,12.3-2.911,2.14,0.865,2.14.866,1.26,2.749-0.3.642-.64,1.273-0.91,1.923-0.22.522-.49,0.663-1.07,0.327a9.668,9.668,0,0,0-1.86-.833c-2.39-.765-4.04-0.3-5.34,1.632a9.769,9.769,0,0,0-1.47,7.81,2.359,2.359,0,0,0,2.83,1.848,32.942,32.942,0,0,0,3.86-.828C1183.66,745.431,1183.93,745.313,1184.38,745.157Zm-38.15-9.414c-0.78-.3-1.43-0.584-2.1-0.8a9.553,9.553,0,0,0-1.59-.335,1.741,1.741,0,0,0-1.77.566,1.375,1.375,0,0,0,.04,1.814,25.4,25.4,0,0,0,2.54,2.376,6.431,6.431,0,0,1,.52,9.755,7.8,7.8,0,0,1-3.11,1.533,10.433,10.433,0,0,1-6.98-.587,1.077,1.077,0,0,1-.78-1.121c0.05-1.332.01-2.666,0.01-4.165,0.46,0.184.76,0.33,1.08,0.431,1.24,0.394,2.48.829,3.75,1.142a2.058,2.058,0,0,0,2.24-.718,1.615,1.615,0,0,0-.44-2.135c-0.83-.813-1.75-1.555-2.57-2.377a6.345,6.345,0,0,1-.86-8.341,6.919,6.919,0,0,1,5.67-2.713,11.638,11.638,0,0,1,5.51,1.132c0.47,0.222.68,0.445,0.44,0.944C1147.28,733.318,1146.77,734.512,1146.23,735.743Zm75.84-5.363c1.79,0,3.42-.023,5.05.028a0.927,0.927,0,0,1,.58.619c0.33,1.848.62,3.7,0.92,5.555,0.04,0.235.1,0.467,0.22,0.971,0.59-1.009,1.06-1.81,1.52-2.618,0.75-1.314,1.5-2.626,2.22-3.952a1.082,1.082,0,0,1,1.12-.618c1.68,0.028,3.37.01,5.3,0.01-0.7,1.076-1.29,1.994-1.9,2.9-1.92,2.876-3.89,5.733-5.77,8.631a7.08,7.08,0,0,0-.9,2.236c-0.45,1.883-.82,3.782-1.17,5.681a0.949,0.949,0,0,1-1.19.879c-1.12-.056-2.24-0.014-3.36-0.02s-1.12-.017-0.92-1.013c0.38-1.922.85-3.833,1.14-5.765a7.114,7.114,0,0,0-.14-2.678c-0.79-3.266-1.69-6.513-2.54-9.768C1222.17,731.15,1222.14,730.832,1222.07,730.38Zm-58.41.166c-0.29,1.337-.55,2.675-0.89,4a1.03,1.03,0,0,1-.76.39c-0.94.049-1.88,0.047-2.82,0.016a0.763,0.763,0,0,0-.94.7c-0.92,4.632-1.88,9.258-2.82,13.888-0.23,1.16-.21,1.161-1.54,1.156-1.03,0-2.06-.033-3.09.007-0.79.031-1.08-.137-0.92-0.907,0.74-3.439,1.42-6.889,2.12-10.334,0.26-1.263.5-2.529,0.77-3.789,0.12-.525-0.04-0.744-0.67-0.723-0.85.029-1.7-.012-2.54,0.016-0.68.022-.95-0.176-0.8-0.8,0.26-1.072.44-2.158,0.71-3.225a0.89,0.89,0,0,1,.61-0.528c4.42-.022,8.84-0.007,13.26,0A1.785,1.785,0,0,1,1163.66,730.546Zm0.25,20.143c-0.61,0-1.22-.029-1.82.006-0.78.046-.92-0.246-0.78-0.871,1.29-6.175,2.58-12.352,3.83-18.534a1.031,1.031,0,0,1,1.31-.931c1.2,0.061,2.42.036,3.63,0.007,0.66-.015.84,0.186,0.72,0.762-1.04,4.8-2.05,9.614-3.06,14.421-0.31,1.472-.63,2.942-0.9,4.419a0.81,0.81,0,0,1-1.03.732C1165.18,750.652,1164.54,750.689,1163.91,750.689Z" transform="translate(-1133 -730)"/>
</svg>
