<svg xmlns="http://www.w3.org/2000/svg" width="20.66" height="16.75" viewBox="0 0 20.66 16.75">
  <defs>
    <style>
      .cls-1 {
        fill: #888;
        fill-rule: evenodd;
      }
    </style>
  </defs>
  <path class="cls-1" d="M1439.3,3653.63c-0.36.58-.73,1.17-1.18,1.88,0.57-.15,1.09-0.28,1.88-0.49a5.619,5.619,0,0,1-1.09,1.33c-1.07.63-1.12,1.65-1.22,2.68a11.733,11.733,0,0,1-9.27,10.56,11.6,11.6,0,0,1-9.08-1.83,8.512,8.512,0,0,0,5.81-1.49,4.66,4.66,0,0,1-3.5-3.01c0.38-.05.71-0.09,1.15-0.14-1.51-.99-2.66-2.15-2.63-4.17,0.45,0.13.83,0.23,1.43,0.4-1.47-1.77-1.9-3.5-.76-5.57a11.925,11.925,0,0,0,8.3,4.38,15.824,15.824,0,0,1,.32-2.04,4.1,4.1,0,0,1,6.11-2.45,2.54,2.54,0,0,0,2.93.03,6.07,6.07,0,0,1,.59-0.24C1439.16,3653.52,1439.23,3653.57,1439.3,3653.63Z" transform="translate(-1419.34 -3653.06)"/>
</svg>
